<svg width="26" height="242" viewBox="0 0 26 242" xmlns="http://www.w3.org/2000/svg" fill="none">
    <path d="M12.417-1.417c2.133 6.68 2.716 15.278.583 21.959-3.378 8.629-3.378 15.31 0 20.041 3.378 6.68 3.378 13.361 0 20.042-14.276 17.457-14.276 24.138 0 20.042 14.276 6.68 14.276 13.36 0 20.041-16 7.084-16 13.765 0 20.042 16 6.681 16 13.361 0 20.042-5.831 4.557-5.831 11.238 0 20.041 5.831 6.681 5.831 13.361 0 20.042-6.098 6.833-6.098 13.514 0 20.042 6.098 6.68 6.098 13.361 0 20.041-5.82 7.296 1.763 34.059 10.917 39.792" stroke="currentColor" stroke-width="2"/>
</svg>
