<svg width="115" height="26" viewBox="0 0 115 26" fill="none" xmlns="http://www.w3.org/2000/svg">
    <path d="M114.111 13c-3.123 2.133-6.247 2.133-9.37 0-4.035-3.378-7.158-3.378-9.37 0-3.124 3.378-6.247 3.378-9.37 0-8.163-14.276-11.286-14.276-9.371 0-3.124 14.276-6.247 14.276-9.37 0-3.313-16-6.436-16-9.37 0-3.124 16-6.248 16-9.371 0-2.131-5.831-5.255-5.831-9.37 0-3.124 5.831-6.248 5.831-9.371 0-3.195-6.098-6.318-6.098-9.37 0-3.124 6.098-6.247 6.098-9.37 0-4.035-9.653-7.158-9.653-9.371 0" stroke="currentColor" stroke-width="2"/>
</svg>
