<svg width="24" height="24" viewBox="0 0 24 24" fill="none" xmlns="http://www.w3.org/2000/svg">
    <path d="M0 1.72C0 .77.789 0 1.762 0h20.476C23.21 0 24 .77 24 1.72v20.56c0 .95-.79 1.72-1.762 1.72H1.762C.79 24 0 23.23 0 22.28V1.72Zm7.415 18.37V9.253H3.813V20.09h3.602ZM5.614 7.773c1.256 0 2.038-.832 2.038-1.872C7.629 4.838 6.87 4.03 5.638 4.03 4.406 4.029 3.6 4.838 3.6 5.9c0 1.04.782 1.872 1.99 1.872h.024Zm7.363 12.317V14.04c0-.324.024-.648.119-.88.26-.647.853-1.317 1.848-1.317 1.303 0 1.825.994 1.825 2.45v5.798h3.602v-6.213c0-3.33-1.778-4.878-4.147-4.878-1.911 0-2.768 1.05-3.247 1.788v.038h-.024l.024-.037V9.252H9.375c.047 1.017 0 10.837 0 10.837h3.602Z" fill="currentColor"/>
</svg>
