<svg width="212" height="10" viewBox="0 0 212 10" fill="none" xmlns="http://www.w3.org/2000/svg">
    <path d="M3.35955 5C-2.93258 -0.333333 3.35955 -0.333333 22.236 5C41.1124 10.3333 47.4045 10.3333 41.1124 5C34.8202 -0.333333 41.1124 -0.333333 59.9888 5C78.8652 10.3333 85.1573 10.3333 78.8652 5C72.573 -0.333333 78.8652 -0.333333 97.7416 5C116.618 10.3333 122.91 10.3333 116.618 5C110.326 -0.333333 116.618 -0.333333 135.494 5C154.371 10.3333 160.663 10.3333 154.371 5C148.079 -0.333333 154.371 -0.333333 173.247 5C192.124 10.3333 198.416 10.3333 192.124 5C185.831 -0.333333 192.124 -0.333333 211 5" stroke="#0E7C73" stroke-width="2"/>
</svg>